<svg width="911" height="300" viewBox="0 0 911 300" fill="none" xmlns="http://www.w3.org/2000/svg">
<path fill-rule="evenodd" clip-rule="evenodd" d="M236.707 51.7735C242.691 29.5321 245.308 6.70448 242.691 0C227.962 57.5547 187.159 101.956 141.725 138.932C117.529 158.622 89.8226 169.58 68.1415 172.134C52.9549 173.923 40.3579 170.857 33.114 162.027C24.8586 151.962 25.4073 133.303 34.4454 112.974C41.8119 96.4055 54.8178 78.7282 73.2928 63.6926C101.962 40.3606 142.788 30.0125 175.03 33.57C183.634 34.5195 191.628 36.4593 198.615 39.4071C185.954 31.7046 171.869 26.0965 156.845 23.0664C137.414 19.1475 117.089 19.6937 97.9055 24.6838C42.0027 39.2255 0 89.8669 0 150.106C-8.94511e-07 167.444 2.71395 187.988 14.9418 201.373C22.5922 209.747 31.6545 215.448 41.7659 218.643C75.8908 229.423 121.964 211.651 166.031 171.709C200.218 140.723 224.76 96.188 236.707 51.7735Z" fill="black"/>
<path fill-rule="evenodd" clip-rule="evenodd" d="M55.882 239.152C88.6598 243.901 130.056 225.911 169.819 189.871C208.285 155.006 234.816 112.214 239.336 78.448C253.033 98.9742 261.013 123.612 261.013 150.106C261.013 221.693 202.751 279.725 130.881 279.725C87.3083 279.725 48.7376 258.395 25.1193 225.646C34.0299 233.057 44.4299 237.492 55.882 239.152ZM141.725 238.009C143.569 242.291 140.052 247.903 133.868 250.544C127.685 253.184 121.178 251.852 119.333 247.57C117.489 243.287 121.006 237.675 127.189 235.035C133.373 232.395 139.88 233.726 141.725 238.009ZM169.819 257.005C175.664 254.497 179.321 249.474 177.988 245.786C176.654 242.098 170.836 241.141 164.992 243.65C159.147 246.158 155.49 251.181 156.823 254.869C158.156 258.557 163.975 259.513 169.819 257.005ZM181.418 211.942C184.663 216.307 182.319 223.514 176.183 228.039C170.047 232.564 162.442 232.694 159.198 228.33C155.953 223.965 158.297 216.758 164.433 212.233C170.569 207.707 178.174 207.577 181.418 211.942ZM211.072 231.495C216.454 226.089 218.171 219.094 214.908 215.871C211.645 212.648 204.637 214.417 199.255 219.823C193.874 225.228 192.156 232.223 195.419 235.446C198.682 238.669 205.69 236.9 211.072 231.495ZM213.476 179.576C217.293 183.454 215.968 190.913 210.517 196.237C205.065 201.561 197.551 202.733 193.734 198.855C189.917 194.977 191.242 187.518 196.694 182.194C202.145 176.87 209.659 175.698 213.476 179.576ZM239.266 191.121C241.868 185.685 241.26 180.155 237.907 178.768C234.555 177.382 229.727 180.664 227.125 186.1C224.522 191.536 225.131 197.066 228.483 198.453C231.836 199.84 236.663 196.557 239.266 191.121ZM235.211 145.636C239.078 148.191 239.21 154.77 235.506 160.331C231.803 165.892 225.666 168.329 221.799 165.774C217.933 163.219 217.8 156.64 221.504 151.079C225.208 145.518 231.344 143.081 235.211 145.636Z" fill="black"/>
<path d="M395.805 300C387.159 300 379.207 298.578 371.949 295.735C364.691 292.782 358.393 288.681 353.056 283.431C347.719 278.073 343.557 271.839 340.568 264.73C337.579 257.622 336.085 249.802 336.085 241.272C336.085 232.741 337.579 224.922 340.568 217.813C343.557 210.705 347.719 204.526 353.056 199.276C358.5 193.917 364.851 189.816 372.109 186.973C379.367 184.02 387.372 182.544 396.125 182.544C404.984 182.544 413.096 184.02 420.461 186.973C427.826 189.926 434.07 194.355 439.194 200.26L429.267 210.431C424.677 205.838 419.661 202.502 414.217 200.424C408.88 198.237 403.063 197.144 396.765 197.144C390.361 197.144 384.384 198.237 378.833 200.424C373.39 202.612 368.64 205.674 364.584 209.611C360.635 213.548 357.539 218.251 355.298 223.719C353.163 229.078 352.096 234.929 352.096 241.272C352.096 247.505 353.163 253.356 355.298 258.825C357.539 264.183 360.635 268.886 364.584 272.933C368.64 276.87 373.39 279.932 378.833 282.119C384.277 284.306 390.201 285.4 396.605 285.4C402.583 285.4 408.293 284.47 413.737 282.611C419.287 280.643 424.411 277.416 429.107 272.933L438.233 285.4C432.683 290.212 426.172 293.876 418.7 296.391C411.335 298.797 403.703 300 395.805 300ZM422.863 283.267V240.616H438.233V285.4L422.863 283.267Z" fill="black"/>
<path d="M509.875 300C501.335 300 493.383 298.524 486.019 295.571C478.76 292.618 472.463 288.517 467.126 283.267C461.789 277.909 457.626 271.675 454.638 264.566C451.649 257.458 450.155 249.693 450.155 241.272C450.155 232.851 451.649 225.086 454.638 217.977C457.626 210.869 461.789 204.69 467.126 199.44C472.463 194.081 478.76 189.926 486.019 186.973C493.277 184.02 501.229 182.544 509.875 182.544C518.414 182.544 526.259 184.02 533.41 186.973C540.668 189.816 546.966 193.917 552.303 199.276C557.746 204.526 561.909 210.705 564.791 217.813C567.78 224.922 569.274 232.741 569.274 241.272C569.274 249.802 567.78 257.622 564.791 264.73C561.909 271.839 557.746 278.073 552.303 283.431C546.966 288.681 540.668 292.782 533.41 295.735C526.259 298.578 518.414 300 509.875 300ZM509.875 285.4C516.065 285.4 521.776 284.306 527.006 282.119C532.343 279.932 536.933 276.87 540.775 272.933C544.724 268.886 547.766 264.183 549.901 258.825C552.143 253.466 553.263 247.615 553.263 241.272C553.263 234.929 552.143 229.078 549.901 223.719C547.766 218.36 544.724 213.712 540.775 209.775C536.933 205.729 532.343 202.612 527.006 200.424C521.776 198.237 516.065 197.144 509.875 197.144C503.577 197.144 497.76 198.237 492.423 200.424C487.193 202.612 482.603 205.729 478.654 209.775C474.704 213.712 471.609 218.36 469.368 223.719C467.233 229.078 466.165 234.929 466.165 241.272C466.165 247.615 467.233 253.466 469.368 258.825C471.609 264.183 474.704 268.886 478.654 272.933C482.603 276.87 487.193 279.932 492.423 282.119C497.76 284.306 503.577 285.4 509.875 285.4Z" fill="black"/>
<path d="M584.139 298.688V183.856H600.15V284.416H660.83V298.688H584.139Z" fill="black"/>
<path d="M684.005 238.155H741.804V252.263H684.005V238.155ZM685.607 298.688H669.596V183.856H748.689V198.128H685.607V298.688Z" fill="black"/>
<path d="M418.847 9.55015H450.762V124.481H423.947L373.115 63.2391V124.481H341.201V9.55015H368.015L418.847 70.7917V9.55015Z" fill="black"/>
<path d="M496.11 99.3601H556.319V124.481H463.867V9.55015H554.181V34.6707H496.11V54.0447H547.272V78.3442H496.11V99.3601Z" fill="black"/>
<path d="M635.755 124.481L614.863 93.942H597.096V124.481H564.524V9.55015H617.166C648.587 9.55015 668.328 25.8046 668.328 52.0744C668.328 68.9856 660.102 81.4638 645.79 88.3596L670.631 124.481H635.755ZM635.426 52.0744C635.426 41.4023 628.682 35.1632 615.192 35.1632H597.096V68.8214H615.192C628.682 68.8214 635.426 62.5824 635.426 52.0744Z" fill="black"/>
<path d="M760.983 9.55015H793.226L743.874 124.481H711.796L662.608 9.55015H697.813L729.069 84.4191L760.983 9.55015Z" fill="black"/>
<path d="M846.561 126.779C809.712 126.779 782.568 101.495 782.568 67.0154C782.568 32.5362 809.712 7.25154 846.561 7.25154C883.41 7.25154 910.554 32.5362 910.554 67.0154C910.554 101.495 883.41 126.779 846.561 126.779ZM846.561 99.8527C863.999 99.8527 877.653 86.8819 877.653 67.0154C877.653 47.1488 863.999 34.1781 846.561 34.1781C829.123 34.1781 815.469 47.1488 815.469 67.0154C815.469 86.8819 829.123 99.8527 846.561 99.8527Z" fill="black"/>
</svg>
