<svg width="346" height="50" viewBox="0 0 346 50" fill="none" xmlns="http://www.w3.org/2000/svg">
<path d="M26.1552 12.9574C26.3021 8.46298 48.0576 12.104 49.3703 10.9641C50.3031 9.38664 51.1224 5.77509 47.7812 6.38951C21.5017 6.38951 12.2351 10.2762 7.57919 21.4648C2.92324 32.6534 6.99191 39.4423 14.919 44.5483C22.846 49.6544 23.6027 44.948 28.1527 33.4545C32.7027 21.9609 26.0084 17.4517 26.1552 12.9574Z" fill="#003229"/>
<path d="M345.072 10.6611C345.072 12.9028 343.23 14.7069 340.989 14.6602L257.072 12.9119V4.9675L341.016 3.8016C343.247 3.77062 345.072 5.57035 345.072 7.80121V10.6611Z" fill="#003229"/>
<path d="M255.072 11.7453L52.072 10.7453V6.74527L255.072 5.74527V11.7453Z" fill="#003229"/>
</svg>
