<svg width="346" height="50" viewBox="0 0 346 50" fill="none" xmlns="http://www.w3.org/2000/svg">
<path d="M318.917 36.7879C318.77 41.2823 297.014 37.6413 295.702 38.7812C294.769 40.3586 293.95 43.9702 297.291 43.3558C323.57 43.3558 332.837 39.4691 337.493 28.2805C342.149 17.0919 338.08 10.3029 330.153 5.19693C322.226 0.0909155 321.469 4.79727 316.919 16.2908C312.369 27.7843 319.064 32.2935 318.917 36.7879Z" fill="#003229"/>
<path d="M0 39.0842C0 36.8425 1.84205 35.0384 4.08332 35.0851L88 36.8333V44.7778L4.05554 45.9437C1.82489 45.9747 0 44.1749 0 41.9441V39.0842Z" fill="#003229"/>
<path d="M90 38L293 39V43L90 44V38Z" fill="#003229"/>
</svg>
