<svg width="236" height="228" viewBox="0 0 236 228" fill="none" xmlns="http://www.w3.org/2000/svg">
<path d="M196.016 92.6316C201.849 93.652 205.751 99.2084 204.731 105.042C203.71 110.876 198.154 114.778 192.32 113.757C186.486 112.737 183.827 107.398 184.848 101.564C185.868 95.7304 190.182 91.6111 196.016 92.6316Z" fill="white"/>
<path d="M162 99.5C181.563 99.5 199.247 100.506 212.016 102.124C218.41 102.935 223.515 103.892 226.99 104.934C228.739 105.458 229.987 105.978 230.768 106.461C231.179 106.716 231.365 106.9 231.447 107C231.365 107.1 231.179 107.284 230.768 107.539C229.987 108.022 228.739 108.542 226.99 109.066C223.515 110.108 218.41 111.065 212.016 111.876C199.247 113.494 181.563 114.5 162 114.5C142.437 114.5 124.753 113.494 111.984 111.876C105.59 111.065 100.485 110.108 97.0098 109.066C95.2613 108.542 94.0128 108.022 93.2324 107.539C92.8199 107.284 92.6336 107.1 92.5518 107C92.6336 106.9 92.8199 106.716 93.2324 106.461C94.0128 105.978 95.2613 105.458 97.0098 104.934C100.485 103.892 105.59 102.935 111.984 102.124C124.753 100.506 142.437 99.5 162 99.5Z" stroke="#2E8662" stroke-width="3"/>
<path d="M162 99.5C182.394 99.5 200.83 100.506 214.145 102.125C220.812 102.936 226.139 103.894 229.771 104.938C231.597 105.464 232.908 105.987 233.73 106.476C234.137 106.717 234.334 106.896 234.429 107C234.334 107.104 234.137 107.283 233.73 107.524C232.908 108.013 231.597 108.536 229.771 109.062C226.139 110.106 220.812 111.064 214.145 111.875C200.83 113.494 182.394 114.5 162 114.5C141.606 114.5 123.17 113.494 109.855 111.875C103.188 111.064 97.8606 110.106 94.2295 109.062C92.4027 108.536 91.092 108.013 90.2695 107.524C89.8627 107.283 89.6648 107.104 89.5703 107C89.6648 106.896 89.8627 106.717 90.2695 106.476C91.092 105.987 92.4027 105.464 94.2295 104.938C97.8606 103.894 103.188 102.936 109.855 102.125C123.17 100.506 141.606 99.5 162 99.5Z" stroke="#2E8662" stroke-width="3"/>
<path d="M162 201.5C175.469 201.5 187.623 202.504 196.377 204.111C200.766 204.917 204.225 205.863 206.552 206.873C207.721 207.381 208.52 207.869 209.003 208.303C209.491 208.741 209.5 208.974 209.5 209C209.5 209.026 209.491 209.259 209.003 209.697C208.52 210.131 207.721 210.619 206.552 211.127C204.225 212.137 200.766 213.083 196.377 213.889C187.623 215.496 175.469 216.5 162 216.5C148.531 216.5 136.377 215.496 127.623 213.889C123.234 213.083 119.775 212.137 117.448 211.127C116.279 210.619 115.48 210.131 114.997 209.697C114.509 209.259 114.5 209.026 114.5 209C114.5 208.974 114.509 208.741 114.997 208.303C115.48 207.869 116.279 207.381 117.448 206.873C119.775 205.863 123.234 204.917 127.623 204.111C136.377 202.504 148.531 201.5 162 201.5Z" stroke="#2E8662" stroke-width="3"/>
<path d="M162 206.5C175.469 206.5 187.623 207.504 196.377 209.111C200.766 209.917 204.225 210.863 206.552 211.873C207.721 212.381 208.52 212.869 209.003 213.303C209.491 213.741 209.5 213.974 209.5 214C209.5 214.026 209.491 214.259 209.003 214.697C208.52 215.131 207.721 215.619 206.552 216.127C204.225 217.137 200.766 218.083 196.377 218.889C187.623 220.496 175.469 221.5 162 221.5C148.531 221.5 136.377 220.496 127.623 218.889C123.234 218.083 119.775 217.137 117.448 216.127C116.279 215.619 115.48 215.131 114.997 214.697C114.509 214.259 114.5 214.026 114.5 214C114.5 213.974 114.509 213.741 114.997 213.303C115.48 212.869 116.279 212.381 117.448 211.873C119.775 210.863 123.234 209.917 127.623 209.111C136.377 207.504 148.531 206.5 162 206.5Z" stroke="#2E8662" stroke-width="3"/>
<path d="M162.5 168.5C177.765 168.5 191.547 169.616 201.479 171.405C206.457 172.302 210.394 173.355 213.051 174.487C214.385 175.056 215.312 175.609 215.881 176.11C216.457 176.618 216.5 176.916 216.5 177C216.5 177.084 216.457 177.382 215.881 177.89C215.312 178.391 214.385 178.944 213.051 179.513C210.394 180.645 206.457 181.698 201.479 182.595C191.547 184.384 177.765 185.5 162.5 185.5C147.235 185.5 133.453 184.384 123.521 182.595C118.543 181.698 114.606 180.645 111.949 179.513C110.615 178.944 109.688 178.391 109.119 177.89C108.543 177.382 108.5 177.084 108.5 177C108.5 176.916 108.543 176.618 109.119 176.11C109.688 175.609 110.615 175.056 111.949 174.487C114.606 173.355 118.543 172.302 123.521 171.405C133.453 169.616 147.235 168.5 162.5 168.5Z" stroke="#2E8662" stroke-width="3"/>
<path d="M162.5 163.5C177.768 163.5 191.554 164.56 201.491 166.261C206.472 167.113 210.414 168.115 213.076 169.192C214.414 169.734 215.342 170.261 215.91 170.736C216.492 171.223 216.5 171.482 216.5 171.5C216.5 171.518 216.492 171.777 215.91 172.264C215.342 172.739 214.414 173.266 213.076 173.808C210.414 174.885 206.472 175.887 201.491 176.739C191.554 178.44 177.768 179.5 162.5 179.5C147.232 179.5 133.446 178.44 123.509 176.739C118.528 175.887 114.586 174.885 111.924 173.808C110.586 173.266 109.658 172.739 109.09 172.264C108.508 171.777 108.5 171.518 108.5 171.5C108.5 171.482 108.508 171.223 109.09 170.736C109.658 170.261 110.586 169.734 111.924 169.192C114.586 168.115 118.528 167.113 123.509 166.261C133.446 164.56 147.232 163.5 162.5 163.5Z" stroke="#2E8662" stroke-width="3"/>
<path d="M162.5 130.5C179.699 130.5 195.234 131.728 206.435 133.699C212.047 134.687 216.498 135.85 219.512 137.104C221.025 137.733 222.09 138.351 222.752 138.92C223.424 139.498 223.5 139.861 223.5 140C223.5 140.139 223.424 140.502 222.752 141.08C222.09 141.649 221.025 142.267 219.512 142.896C216.498 144.15 212.047 145.313 206.435 146.301C195.234 148.272 179.699 149.5 162.5 149.5C145.301 149.5 129.766 148.272 118.565 146.301C112.953 145.313 108.502 144.15 105.488 142.896C103.975 142.267 102.91 141.649 102.248 141.08C101.576 140.502 101.5 140.139 101.5 140C101.5 139.861 101.576 139.498 102.248 138.92C102.91 138.351 103.975 137.733 105.488 137.104C108.502 135.85 112.953 134.687 118.565 133.699C129.766 131.728 145.301 130.5 162.5 130.5Z" stroke="#2E8662" stroke-width="3"/>
<path d="M162.5 125.5C179.702 125.5 195.24 126.672 206.445 128.555C212.06 129.498 216.517 130.608 219.535 131.807C221.051 132.409 222.117 133 222.778 133.543C223.457 134.1 223.5 134.425 223.5 134.5C223.5 134.575 223.457 134.9 222.778 135.457C222.117 136 221.051 136.591 219.535 137.193C216.517 138.392 212.06 139.502 206.445 140.445C195.24 142.328 179.702 143.5 162.5 143.5C145.298 143.5 129.76 142.328 118.555 140.445C112.94 139.502 108.483 138.392 105.465 137.193C103.949 136.591 102.883 136 102.222 135.457C101.543 134.9 101.5 134.575 101.5 134.5C101.5 134.425 101.543 134.1 102.222 133.543C102.883 133 103.949 132.409 105.465 131.807C108.483 130.608 112.94 129.498 118.555 128.555C129.76 126.672 145.298 125.5 162.5 125.5Z" stroke="#2E8662" stroke-width="3"/>
<path d="M114.225 214.897L95 107C101.5 108 108.671 110.824 162.073 112.103C204.794 113.126 224.5 108.5 230 107.426L209.921 215.75C205.934 217.882 190.533 223 160.791 223C131.313 223 117.358 217.882 114.225 214.897Z" stroke="#2E8662" stroke-width="4"/>
<path d="M116 113L128 219" stroke="#2E8662" stroke-width="4"/>
<path d="M135.625 113.812L144.618 220.752" stroke="#2E8662" stroke-width="4"/>
<path d="M187.055 114.828L178.062 221.767" stroke="#2E8662" stroke-width="4"/>
<path d="M163 222V112" stroke="#2E8662" stroke-width="4"/>
<path d="M207 112L195 219" stroke="#2E8662" stroke-width="4"/>
<path d="M204.989 103.19C203.977 108.524 199.579 105.289 194.245 104.277C183.5 101.5 184.5 104.276 185.671 99.5228C186.683 94.1881 191.613 91.8207 196.948 92.8333C202.283 93.8459 206.002 97.8549 204.989 103.19Z" fill="white"/>
<path d="M21.4465 209.356C21.4465 215.278 16.6455 220.079 10.7232 220.079C4.80095 220.079 0 215.278 0 209.356C0 203.434 4.80095 199.895 10.7232 199.895C16.6455 199.895 21.4465 203.434 21.4465 209.356Z" fill="white"/>
<path d="M76.4669 203.301C80.11 198.632 86.8485 197.801 91.5176 201.444C96.1867 205.087 97.0184 211.825 93.3752 216.495C89.732 221.164 83.7696 221.001 79.1005 217.358C74.4314 213.714 72.8237 207.971 76.4669 203.301Z" fill="white"/>
<path d="M39.751 222.395C34.182 225.361 27.2627 223.251 24.2963 217.682C21.33 212.113 23.4399 205.194 29.0089 202.227C34.578 199.261 40.3109 202.003 43.2773 207.572C46.2436 213.141 45.32 219.428 39.751 222.395Z" fill="white"/>
<path d="M23.1093 177.553C28.943 178.574 32.8449 184.13 31.8244 189.964C30.804 195.798 25.2476 199.7 19.4139 198.679C13.5802 197.659 10.921 192.32 11.9414 186.486C12.9619 180.652 17.2756 176.533 23.1093 177.553Z" fill="white"/>
<path d="M121.016 83.6306C126.849 84.6511 130.751 90.2075 129.731 96.0412C128.71 101.875 123.154 105.777 117.32 104.756C111.486 103.736 108.827 98.3968 109.848 92.5631C110.868 86.7294 115.182 82.6102 121.016 83.6306Z" fill="white"/>
<path d="M135.016 23.6296C140.849 24.6501 144.751 30.2065 143.731 36.0402C142.71 41.8739 137.154 45.7758 131.32 44.7553C125.486 43.7349 122.827 38.3959 123.848 32.5622C124.868 26.7285 129.182 22.6092 135.016 23.6296Z" fill="white"/>
<path d="M171.016 53.6326C176.849 54.653 180.751 60.2094 179.731 66.0431C178.71 71.8768 173.154 75.7787 167.32 74.7582C161.486 73.7378 158.827 68.3988 159.848 62.5651C160.868 56.7314 165.182 52.6121 171.016 53.6326Z" fill="white"/>
<path d="M195.016 1.63061C200.849 2.65107 204.751 8.20745 203.731 14.0412C202.71 19.8748 197.154 23.7768 191.32 22.7563C185.486 21.7358 182.827 16.3968 183.848 10.5631C184.868 4.72944 189.182 0.610159 195.016 1.63061Z" fill="white"/>
<path d="M67.4166 219.78C62.0787 222.623 55.4467 220.601 52.6034 215.263C49.7602 209.925 51.7825 203.293 57.1204 200.45C62.4583 197.606 67.9533 200.234 70.7965 205.572C73.6398 210.91 72.7545 216.937 67.4166 219.78Z" fill="white"/>
<path d="M57.1718 158.632C63.0055 159.652 66.9074 165.208 65.8869 171.042C64.8665 176.876 59.3101 180.778 53.4764 179.757C47.6427 178.737 44.9835 173.398 46.0039 167.564C47.0244 161.73 51.3381 157.611 57.1718 158.632Z" fill="white"/>
<path d="M57.6193 191.644C58.2228 197.535 53.936 202.801 48.0446 203.404C42.1532 204.008 36.888 199.721 36.2845 193.829C35.681 187.938 40.0963 183.928 45.9877 183.324C51.8792 182.721 57.0158 185.753 57.6193 191.644Z" fill="white"/>
<path d="M61.795 182.867C64.9435 177.851 71.5621 176.337 76.5781 179.485C81.5942 182.634 83.1082 189.252 79.9597 194.268C76.8113 199.284 70.8634 199.73 65.8473 196.581C60.8313 193.433 58.6466 187.883 61.795 182.867Z" fill="white"/>
</svg>
