<svg width="100" height="159" viewBox="0 0 100 159" fill="none" xmlns="http://www.w3.org/2000/svg">
<circle cx="50.5" cy="51.5" r="30.5" fill="white"/>
<path d="M45.878 102.448V159H55.439V102.448C55.439 93.6207 61.813 87.2759 65 85.2069V79C63.6341 79.2299 58.9902 79.6897 51.3415 79.6897C43.6927 79.6897 38.5935 79.2299 37 79V85.2069C44.6488 91.8276 46.1057 99.4598 45.878 102.448Z" fill="url(#paint0_linear_2753_955)"/>
<path fill-rule="evenodd" clip-rule="evenodd" d="M53.0625 72.5189C53.4705 73.4598 52.6924 74.6929 51.3244 75.273C49.9564 75.8531 48.5166 75.5606 48.1085 74.6196C47.7005 73.6787 48.4787 72.4456 49.8467 71.8655C51.2146 71.2854 52.6544 71.5779 53.0625 72.5189ZM59.2782 76.6926C60.5712 76.1415 61.3803 75.0379 61.0854 74.2276C60.7905 73.4173 59.5032 73.2072 58.2101 73.7583C56.9171 74.3094 56.108 75.413 56.4029 76.2233C56.6979 77.0336 57.9852 77.2438 59.2782 76.6926ZM61.8444 66.7915C62.5622 67.7506 62.0437 69.334 60.6861 70.3283C59.3286 71.3226 57.6462 71.3512 56.9283 70.3922C56.2105 69.4331 56.7291 67.8497 58.0866 66.8554C59.4442 65.8611 61.1266 65.8325 61.8444 66.7915ZM68.4051 71.0876C69.5958 69.8999 69.9757 68.363 69.2538 67.6549C68.5319 66.9467 66.9814 67.3354 65.7908 68.523C64.6001 69.7107 64.2202 71.2476 64.9421 71.9558C65.664 72.6639 67.2144 72.2752 68.4051 71.0876ZM68.9371 59.68C69.7816 60.5321 69.4884 62.1711 68.2823 63.3409C67.0761 64.5107 65.4137 64.7682 64.5692 63.9161C63.7247 63.0641 64.0178 61.425 65.224 60.2553C66.4301 59.0855 68.0925 58.828 68.9371 59.68ZM74.6428 62.2168C75.2185 61.0225 75.084 59.8073 74.3422 59.5026C73.6005 59.198 72.5324 59.9192 71.9567 61.1135C71.3809 62.3079 71.5155 63.5231 72.2572 63.8277C72.999 64.1324 74.067 63.4112 74.6428 62.2168ZM73.7457 52.2229C74.6012 52.7843 74.6304 54.2298 73.811 55.4517C72.9917 56.6735 71.634 57.2089 70.7785 56.6476C69.923 56.0862 69.8938 54.6407 70.7131 53.4188C71.5325 52.197 72.8902 51.6616 73.7457 52.2229Z" fill="#DEDEDE" fill-opacity="0.7"/>
<path d="M50.0853 15.7078C49.0217 10.387 47.7472 -0.088228 51.1582 0.577381C54.5692 1.24299 51.8642 10.9417 50.0853 15.7078Z" fill="#DEDEDE"/>
<path d="M15.4794 40.0213C10.0619 40.3266 -0.48847 40.1164 0.649876 36.8327C1.78822 33.5491 11.0105 37.5903 15.4794 40.0213Z" fill="#DEDEDE"/>
<path d="M26.4484 23.8538C22.8183 21.1468 16.1801 15.36 18.6676 13.8687C21.1552 12.3775 24.8913 19.9041 26.4484 23.8538Z" fill="#DEDEDE"/>
<path d="M15.6844 56.7138C12.8071 57.9328 6.97725 59.9016 6.67641 58.0253C6.37557 56.1491 12.5564 56.3692 15.6844 56.7138Z" fill="#DEDEDE"/>
<path d="M85.0031 55.6747C87.8804 56.8937 93.7103 58.8625 94.0111 56.9863C94.3119 55.11 88.1311 55.3301 85.0031 55.6747Z" fill="#DEDEDE"/>
<path d="M72.8846 23.3337C74.7987 19.5755 79.0669 12.5713 80.8271 14.6203C82.5873 16.6694 76.2655 21.283 72.8846 23.3337Z" fill="#DEDEDE"/>
<path d="M85.9994 40.6693C90.0222 37.028 98.3622 30.5628 99.5397 33.8325C100.717 37.1023 91.0035 39.7528 85.9994 40.6693Z" fill="#DEDEDE"/>
<defs>
<linearGradient id="paint0_linear_2753_955" x1="51" y1="99" x2="51" y2="177" gradientUnits="userSpaceOnUse">
<stop stop-color="#2E8662"/>
<stop offset="1" stop-color="white" stop-opacity="0"/>
</linearGradient>
</defs>
</svg>
