<svg width="1222" height="261" viewBox="0 0 1222 261" fill="none" xmlns="http://www.w3.org/2000/svg">
<mask id="path-1-outside-1_4015_605" maskUnits="userSpaceOnUse" x="807.008" y="74.1816" width="415" height="128" fill="black">
<rect fill="white" x="807.008" y="74.1816" width="415" height="128"/>
<path d="M814.395 200.958C810.137 200.958 808.008 197.191 808.008 189.658C808.008 183.435 809.482 177.375 812.43 171.479C819.963 157.067 826.842 142.819 833.065 128.735C837.323 120.219 841.253 112.03 844.856 104.169C848.787 96.3082 852.39 89.1022 855.665 82.5514C857.631 80.5861 859.596 79.6035 861.561 79.6035C865.819 79.6035 867.129 81.5687 865.492 85.4993C864.837 87.7921 863.854 90.5762 862.544 93.8516C861.561 96.7995 860.251 100.402 858.613 104.661C853.373 118.417 850.261 128.08 849.278 133.648C858.449 125.46 867.784 117.926 877.283 111.048C887.11 103.842 896.281 97.9459 904.797 93.3603C913.313 88.7747 920.519 86.4819 926.415 86.4819C931.655 86.4819 934.276 88.6109 934.276 92.869C934.276 96.472 932.638 100.402 929.363 104.661C926.087 108.591 922.812 110.556 919.536 110.556C917.899 110.556 916.588 110.065 915.606 109.082C914.623 108.755 912.658 108.591 909.71 108.591C899.229 108.591 888.256 113.668 876.792 123.822C864.673 133.976 853.7 146.259 843.874 160.67C834.048 174.755 826.842 187.038 822.256 197.519C819.963 199.812 817.343 200.958 814.395 200.958Z"/>
<path d="M919.667 196.045C912.788 196.045 906.729 194.244 901.488 190.641C892.972 184.09 888.714 174.263 888.714 161.162C888.714 148.06 893.3 134.139 902.471 119.4C911.642 104.661 925.563 91.0675 944.233 78.6209C947.508 76.328 951.93 75.1816 957.498 75.1816C964.704 75.1816 971.091 77.1469 976.659 81.0774C982.555 85.0079 984.848 90.0849 983.538 96.3082C981.245 106.462 976.168 115.469 968.307 123.33C960.773 131.192 951.766 138.234 941.285 144.457C931.131 150.353 920.649 156.085 909.841 161.653C909.513 162.636 909.185 163.618 908.858 164.601C908.858 165.584 908.858 166.566 908.858 167.549C908.858 172.134 910.332 176.229 913.28 179.832C916.555 183.107 920.977 184.745 926.545 184.745C930.803 184.745 934.406 184.09 937.354 182.78C942.595 180.814 946.853 179.013 950.128 177.375C953.731 175.737 957.826 173.281 962.411 170.005C966.997 166.73 973.22 161.817 981.081 155.266C984.684 152.646 986.813 151.335 987.468 151.335C989.433 151.335 990.089 152.809 989.434 155.757C986.158 160.998 980.426 166.73 972.238 172.953C964.376 179.177 955.533 184.581 945.706 189.167C936.208 193.752 927.528 196.045 919.667 196.045ZM912.788 148.388C915.409 148.388 920.813 145.767 929.002 140.527C937.19 135.286 944.888 129.554 952.094 123.33C964.54 111.866 970.764 103.023 970.764 96.7995C970.764 95.1618 970.272 93.6878 969.29 92.3777C968.307 90.74 966.833 89.9211 964.868 89.9211C958.644 89.9211 948.163 97.2908 933.424 112.03C923.27 121.857 916.391 133.976 912.788 148.388Z"/>
<path d="M997.413 196.045C990.535 196.045 984.476 194.244 979.235 190.641C970.719 184.09 966.461 174.263 966.461 161.162C966.461 148.06 971.046 134.139 980.217 119.4C989.389 104.661 1003.31 91.0675 1021.98 78.6209C1025.25 76.328 1029.68 75.1816 1035.24 75.1816C1042.45 75.1816 1048.84 77.1469 1054.41 81.0774C1060.3 85.0079 1062.59 90.0849 1061.28 96.3082C1058.99 106.462 1053.91 115.469 1046.05 123.33C1038.52 131.192 1029.51 138.234 1019.03 144.457C1008.88 150.353 998.396 156.085 987.587 161.653C987.26 162.636 986.932 163.618 986.605 164.601C986.605 165.584 986.605 166.566 986.605 167.549C986.605 172.134 988.079 176.229 991.026 179.832C994.302 183.107 998.724 184.745 1004.29 184.745C1008.55 184.745 1012.15 184.09 1015.1 182.78C1020.34 180.814 1024.6 179.013 1027.88 177.375C1031.48 175.737 1035.57 173.281 1040.16 170.005C1044.74 166.73 1050.97 161.817 1058.83 155.266C1062.43 152.646 1064.56 151.335 1065.21 151.335C1067.18 151.335 1067.84 152.809 1067.18 155.757C1063.9 160.998 1058.17 166.73 1049.98 172.953C1042.12 179.177 1033.28 184.581 1023.45 189.167C1013.95 193.752 1005.27 196.045 997.413 196.045ZM990.535 148.388C993.155 148.388 998.56 145.767 1006.75 140.527C1014.94 135.286 1022.63 129.554 1029.84 123.33C1042.29 111.866 1048.51 103.023 1048.51 96.7995C1048.51 95.1618 1048.02 93.6878 1047.04 92.3777C1046.05 90.74 1044.58 89.9211 1042.61 89.9211C1036.39 89.9211 1025.91 97.2908 1011.17 112.03C1001.02 121.857 994.138 133.976 990.535 148.388Z"/>
<path d="M1049.61 198.502C1043.72 198.502 1040.77 196.209 1040.77 191.623C1040.77 188.675 1041.75 184.909 1043.72 180.323C1046.01 175.737 1048.3 171.316 1050.59 167.058C1056.82 155.921 1062.55 145.112 1067.79 134.631C1073.03 124.149 1078.11 113.013 1083.02 101.221C1085.31 95.9806 1088.75 93.3603 1093.34 93.3603C1098.25 93.3603 1099.73 96.3082 1097.76 102.204C1095.8 107.117 1093.83 111.539 1091.86 115.469C1082.69 134.139 1078.11 146.75 1078.11 153.301C1078.11 156.249 1079.09 158.05 1081.06 158.705C1085.64 155.102 1089.08 152.482 1091.37 150.844C1093.67 148.879 1094.98 147.732 1095.3 147.405C1099.89 143.802 1104.97 139.708 1110.53 135.122C1116.43 130.209 1122.82 124.641 1129.7 118.417C1140.51 108.591 1149.51 103.678 1156.72 103.678C1165.56 103.678 1169.33 111.703 1168.02 127.752C1167.69 133.976 1168.02 139.384 1168.02 145.931C1168.35 147.241 1168.02 149.614 1168.02 152.235C1168.02 154.528 1168.51 156.904 1168.51 160.179C1168.51 163.455 1170.48 165.092 1174.41 165.092C1178.99 165.092 1189.88 163.782 1193.81 161.162L1205.42 154.307L1215.43 146.914C1216.09 146.586 1217.23 146.422 1218.87 146.422C1220.84 146.422 1220.84 147.896 1218.87 150.844C1198.23 176.393 1174.57 189.167 1161.14 189.167C1158.52 189.167 1155.9 188.675 1153.28 187.693C1150.99 186.71 1149.35 183.926 1148.37 179.34C1147.38 174.427 1146.73 169.187 1146.4 163.618C1146.4 158.05 1146.4 153.792 1146.4 150.844L1146.89 134.631C1146.89 127.752 1145.09 124.313 1141.49 124.313C1132.97 124.313 1112.01 141.837 1078.6 176.884C1075.98 180.159 1071.88 184.581 1066.32 190.149C1060.75 195.718 1055.18 198.502 1049.61 198.502Z"/>
</mask>
<path d="M814.395 200.958C810.137 200.958 808.008 197.191 808.008 189.658C808.008 183.435 809.482 177.375 812.43 171.479C819.963 157.067 826.842 142.819 833.065 128.735C837.323 120.219 841.253 112.03 844.856 104.169C848.787 96.3082 852.39 89.1022 855.665 82.5514C857.631 80.5861 859.596 79.6035 861.561 79.6035C865.819 79.6035 867.129 81.5687 865.492 85.4993C864.837 87.7921 863.854 90.5762 862.544 93.8516C861.561 96.7995 860.251 100.402 858.613 104.661C853.373 118.417 850.261 128.08 849.278 133.648C858.449 125.46 867.784 117.926 877.283 111.048C887.11 103.842 896.281 97.9459 904.797 93.3603C913.313 88.7747 920.519 86.4819 926.415 86.4819C931.655 86.4819 934.276 88.6109 934.276 92.869C934.276 96.472 932.638 100.402 929.363 104.661C926.087 108.591 922.812 110.556 919.536 110.556C917.899 110.556 916.588 110.065 915.606 109.082C914.623 108.755 912.658 108.591 909.71 108.591C899.229 108.591 888.256 113.668 876.792 123.822C864.673 133.976 853.7 146.259 843.874 160.67C834.048 174.755 826.842 187.038 822.256 197.519C819.963 199.812 817.343 200.958 814.395 200.958Z" fill="#27D550"/>
<path d="M919.667 196.045C912.788 196.045 906.729 194.244 901.488 190.641C892.972 184.09 888.714 174.263 888.714 161.162C888.714 148.06 893.3 134.139 902.471 119.4C911.642 104.661 925.563 91.0675 944.233 78.6209C947.508 76.328 951.93 75.1816 957.498 75.1816C964.704 75.1816 971.091 77.1469 976.659 81.0774C982.555 85.0079 984.848 90.0849 983.538 96.3082C981.245 106.462 976.168 115.469 968.307 123.33C960.773 131.192 951.766 138.234 941.285 144.457C931.131 150.353 920.649 156.085 909.841 161.653C909.513 162.636 909.185 163.618 908.858 164.601C908.858 165.584 908.858 166.566 908.858 167.549C908.858 172.134 910.332 176.229 913.28 179.832C916.555 183.107 920.977 184.745 926.545 184.745C930.803 184.745 934.406 184.09 937.354 182.78C942.595 180.814 946.853 179.013 950.128 177.375C953.731 175.737 957.826 173.281 962.411 170.005C966.997 166.73 973.22 161.817 981.081 155.266C984.684 152.646 986.813 151.335 987.468 151.335C989.433 151.335 990.089 152.809 989.434 155.757C986.158 160.998 980.426 166.73 972.238 172.953C964.376 179.177 955.533 184.581 945.706 189.167C936.208 193.752 927.528 196.045 919.667 196.045ZM912.788 148.388C915.409 148.388 920.813 145.767 929.002 140.527C937.19 135.286 944.888 129.554 952.094 123.33C964.54 111.866 970.764 103.023 970.764 96.7995C970.764 95.1618 970.272 93.6878 969.29 92.3777C968.307 90.74 966.833 89.9211 964.868 89.9211C958.644 89.9211 948.163 97.2908 933.424 112.03C923.27 121.857 916.391 133.976 912.788 148.388Z" fill="#27D550"/>
<path d="M997.413 196.045C990.535 196.045 984.476 194.244 979.235 190.641C970.719 184.09 966.461 174.263 966.461 161.162C966.461 148.06 971.046 134.139 980.217 119.4C989.389 104.661 1003.31 91.0675 1021.98 78.6209C1025.25 76.328 1029.68 75.1816 1035.24 75.1816C1042.45 75.1816 1048.84 77.1469 1054.41 81.0774C1060.3 85.0079 1062.59 90.0849 1061.28 96.3082C1058.99 106.462 1053.91 115.469 1046.05 123.33C1038.52 131.192 1029.51 138.234 1019.03 144.457C1008.88 150.353 998.396 156.085 987.587 161.653C987.26 162.636 986.932 163.618 986.605 164.601C986.605 165.584 986.605 166.566 986.605 167.549C986.605 172.134 988.079 176.229 991.026 179.832C994.302 183.107 998.724 184.745 1004.29 184.745C1008.55 184.745 1012.15 184.09 1015.1 182.78C1020.34 180.814 1024.6 179.013 1027.88 177.375C1031.48 175.737 1035.57 173.281 1040.16 170.005C1044.74 166.73 1050.97 161.817 1058.83 155.266C1062.43 152.646 1064.56 151.335 1065.21 151.335C1067.18 151.335 1067.84 152.809 1067.18 155.757C1063.9 160.998 1058.17 166.73 1049.98 172.953C1042.12 179.177 1033.28 184.581 1023.45 189.167C1013.95 193.752 1005.27 196.045 997.413 196.045ZM990.535 148.388C993.155 148.388 998.56 145.767 1006.75 140.527C1014.94 135.286 1022.63 129.554 1029.84 123.33C1042.29 111.866 1048.51 103.023 1048.51 96.7995C1048.51 95.1618 1048.02 93.6878 1047.04 92.3777C1046.05 90.74 1044.58 89.9211 1042.61 89.9211C1036.39 89.9211 1025.91 97.2908 1011.17 112.03C1001.02 121.857 994.138 133.976 990.535 148.388Z" fill="#27D550"/>
<path d="M1049.61 198.502C1043.72 198.502 1040.77 196.209 1040.77 191.623C1040.77 188.675 1041.75 184.909 1043.72 180.323C1046.01 175.737 1048.3 171.316 1050.59 167.058C1056.82 155.921 1062.55 145.112 1067.79 134.631C1073.03 124.149 1078.11 113.013 1083.02 101.221C1085.31 95.9806 1088.75 93.3603 1093.34 93.3603C1098.25 93.3603 1099.73 96.3082 1097.76 102.204C1095.8 107.117 1093.83 111.539 1091.86 115.469C1082.69 134.139 1078.11 146.75 1078.11 153.301C1078.11 156.249 1079.09 158.05 1081.06 158.705C1085.64 155.102 1089.08 152.482 1091.37 150.844C1093.67 148.879 1094.98 147.732 1095.3 147.405C1099.89 143.802 1104.97 139.708 1110.53 135.122C1116.43 130.209 1122.82 124.641 1129.7 118.417C1140.51 108.591 1149.51 103.678 1156.72 103.678C1165.56 103.678 1169.33 111.703 1168.02 127.752C1167.69 133.976 1168.02 139.384 1168.02 145.931C1168.35 147.241 1168.02 149.614 1168.02 152.235C1168.02 154.528 1168.51 156.904 1168.51 160.179C1168.51 163.455 1170.48 165.092 1174.41 165.092C1178.99 165.092 1189.88 163.782 1193.81 161.162L1205.42 154.307L1215.43 146.914C1216.09 146.586 1217.23 146.422 1218.87 146.422C1220.84 146.422 1220.84 147.896 1218.87 150.844C1198.23 176.393 1174.57 189.167 1161.14 189.167C1158.52 189.167 1155.9 188.675 1153.28 187.693C1150.99 186.71 1149.35 183.926 1148.37 179.34C1147.38 174.427 1146.73 169.187 1146.4 163.618C1146.4 158.05 1146.4 153.792 1146.4 150.844L1146.89 134.631C1146.89 127.752 1145.09 124.313 1141.49 124.313C1132.97 124.313 1112.01 141.837 1078.6 176.884C1075.98 180.159 1071.88 184.581 1066.32 190.149C1060.75 195.718 1055.18 198.502 1049.61 198.502Z" fill="#27D550"/>
<path d="M814.395 200.958C810.137 200.958 808.008 197.191 808.008 189.658C808.008 183.435 809.482 177.375 812.43 171.479C819.963 157.067 826.842 142.819 833.065 128.735C837.323 120.219 841.253 112.03 844.856 104.169C848.787 96.3082 852.39 89.1022 855.665 82.5514C857.631 80.5861 859.596 79.6035 861.561 79.6035C865.819 79.6035 867.129 81.5687 865.492 85.4993C864.837 87.7921 863.854 90.5762 862.544 93.8516C861.561 96.7995 860.251 100.402 858.613 104.661C853.373 118.417 850.261 128.08 849.278 133.648C858.449 125.46 867.784 117.926 877.283 111.048C887.11 103.842 896.281 97.9459 904.797 93.3603C913.313 88.7747 920.519 86.4819 926.415 86.4819C931.655 86.4819 934.276 88.6109 934.276 92.869C934.276 96.472 932.638 100.402 929.363 104.661C926.087 108.591 922.812 110.556 919.536 110.556C917.899 110.556 916.588 110.065 915.606 109.082C914.623 108.755 912.658 108.591 909.71 108.591C899.229 108.591 888.256 113.668 876.792 123.822C864.673 133.976 853.7 146.259 843.874 160.67C834.048 174.755 826.842 187.038 822.256 197.519C819.963 199.812 817.343 200.958 814.395 200.958Z" stroke="#27D550" stroke-width="2" mask="url(#path-1-outside-1_4015_605)"/>
<path d="M919.667 196.045C912.788 196.045 906.729 194.244 901.488 190.641C892.972 184.09 888.714 174.263 888.714 161.162C888.714 148.06 893.3 134.139 902.471 119.4C911.642 104.661 925.563 91.0675 944.233 78.6209C947.508 76.328 951.93 75.1816 957.498 75.1816C964.704 75.1816 971.091 77.1469 976.659 81.0774C982.555 85.0079 984.848 90.0849 983.538 96.3082C981.245 106.462 976.168 115.469 968.307 123.33C960.773 131.192 951.766 138.234 941.285 144.457C931.131 150.353 920.649 156.085 909.841 161.653C909.513 162.636 909.185 163.618 908.858 164.601C908.858 165.584 908.858 166.566 908.858 167.549C908.858 172.134 910.332 176.229 913.28 179.832C916.555 183.107 920.977 184.745 926.545 184.745C930.803 184.745 934.406 184.09 937.354 182.78C942.595 180.814 946.853 179.013 950.128 177.375C953.731 175.737 957.826 173.281 962.411 170.005C966.997 166.73 973.22 161.817 981.081 155.266C984.684 152.646 986.813 151.335 987.468 151.335C989.433 151.335 990.089 152.809 989.434 155.757C986.158 160.998 980.426 166.73 972.238 172.953C964.376 179.177 955.533 184.581 945.706 189.167C936.208 193.752 927.528 196.045 919.667 196.045ZM912.788 148.388C915.409 148.388 920.813 145.767 929.002 140.527C937.19 135.286 944.888 129.554 952.094 123.33C964.54 111.866 970.764 103.023 970.764 96.7995C970.764 95.1618 970.272 93.6878 969.29 92.3777C968.307 90.74 966.833 89.9211 964.868 89.9211C958.644 89.9211 948.163 97.2908 933.424 112.03C923.27 121.857 916.391 133.976 912.788 148.388Z" stroke="#27D550" stroke-width="2" mask="url(#path-1-outside-1_4015_605)"/>
<path d="M997.413 196.045C990.535 196.045 984.476 194.244 979.235 190.641C970.719 184.09 966.461 174.263 966.461 161.162C966.461 148.06 971.046 134.139 980.217 119.4C989.389 104.661 1003.31 91.0675 1021.98 78.6209C1025.25 76.328 1029.68 75.1816 1035.24 75.1816C1042.45 75.1816 1048.84 77.1469 1054.41 81.0774C1060.3 85.0079 1062.59 90.0849 1061.28 96.3082C1058.99 106.462 1053.91 115.469 1046.05 123.33C1038.52 131.192 1029.51 138.234 1019.03 144.457C1008.88 150.353 998.396 156.085 987.587 161.653C987.26 162.636 986.932 163.618 986.605 164.601C986.605 165.584 986.605 166.566 986.605 167.549C986.605 172.134 988.079 176.229 991.026 179.832C994.302 183.107 998.724 184.745 1004.29 184.745C1008.55 184.745 1012.15 184.09 1015.1 182.78C1020.34 180.814 1024.6 179.013 1027.88 177.375C1031.48 175.737 1035.57 173.281 1040.16 170.005C1044.74 166.73 1050.97 161.817 1058.83 155.266C1062.43 152.646 1064.56 151.335 1065.21 151.335C1067.18 151.335 1067.84 152.809 1067.18 155.757C1063.9 160.998 1058.17 166.73 1049.98 172.953C1042.12 179.177 1033.28 184.581 1023.45 189.167C1013.95 193.752 1005.27 196.045 997.413 196.045ZM990.535 148.388C993.155 148.388 998.56 145.767 1006.75 140.527C1014.94 135.286 1022.63 129.554 1029.84 123.33C1042.29 111.866 1048.51 103.023 1048.51 96.7995C1048.51 95.1618 1048.02 93.6878 1047.04 92.3777C1046.05 90.74 1044.58 89.9211 1042.61 89.9211C1036.39 89.9211 1025.91 97.2908 1011.17 112.03C1001.02 121.857 994.138 133.976 990.535 148.388Z" stroke="#27D550" stroke-width="2" mask="url(#path-1-outside-1_4015_605)"/>
<path d="M1049.61 198.502C1043.72 198.502 1040.77 196.209 1040.77 191.623C1040.77 188.675 1041.75 184.909 1043.72 180.323C1046.01 175.737 1048.3 171.316 1050.59 167.058C1056.82 155.921 1062.55 145.112 1067.79 134.631C1073.03 124.149 1078.11 113.013 1083.02 101.221C1085.31 95.9806 1088.75 93.3603 1093.34 93.3603C1098.25 93.3603 1099.73 96.3082 1097.76 102.204C1095.8 107.117 1093.83 111.539 1091.86 115.469C1082.69 134.139 1078.11 146.75 1078.11 153.301C1078.11 156.249 1079.09 158.05 1081.06 158.705C1085.64 155.102 1089.08 152.482 1091.37 150.844C1093.67 148.879 1094.98 147.732 1095.3 147.405C1099.89 143.802 1104.97 139.708 1110.53 135.122C1116.43 130.209 1122.82 124.641 1129.7 118.417C1140.51 108.591 1149.51 103.678 1156.72 103.678C1165.56 103.678 1169.33 111.703 1168.02 127.752C1167.69 133.976 1168.02 139.384 1168.02 145.931C1168.35 147.241 1168.02 149.614 1168.02 152.235C1168.02 154.528 1168.51 156.904 1168.51 160.179C1168.51 163.455 1170.48 165.092 1174.41 165.092C1178.99 165.092 1189.88 163.782 1193.81 161.162L1205.42 154.307L1215.43 146.914C1216.09 146.586 1217.23 146.422 1218.87 146.422C1220.84 146.422 1220.84 147.896 1218.87 150.844C1198.23 176.393 1174.57 189.167 1161.14 189.167C1158.52 189.167 1155.9 188.675 1153.28 187.693C1150.99 186.71 1149.35 183.926 1148.37 179.34C1147.38 174.427 1146.73 169.187 1146.4 163.618C1146.4 158.05 1146.4 153.792 1146.4 150.844L1146.89 134.631C1146.89 127.752 1145.09 124.313 1141.49 124.313C1132.97 124.313 1112.01 141.837 1078.6 176.884C1075.98 180.159 1071.88 184.581 1066.32 190.149C1060.75 195.718 1055.18 198.502 1049.61 198.502Z" stroke="#27D550" stroke-width="2" mask="url(#path-1-outside-1_4015_605)"/>
<path d="M808.265 1.5C809.932 1.5 811.694 1.60408 813.549 1.80957C815.172 1.98939 816.867 2.24718 818.636 2.58203L819.398 2.73047L819.417 2.73438L819.437 2.73828C824.186 3.81483 828.184 6.30054 831.397 10.1465C834.658 13.847 836.263 18.4049 836.263 23.7207C836.263 29.074 834.437 34.6478 830.925 40.417L830.908 40.4443L830.891 40.4707C829.182 43.0268 826.955 45.3454 824.233 47.4336L824.204 47.457L824.173 47.4785C821.478 49.3393 818.976 50.5623 816.688 51.0186L816.543 51.0469H815.491C814.436 51.0468 813.368 50.8495 812.54 50.207C811.639 49.5083 811.281 48.4933 811.281 47.4453V46.8447C811.281 44.1908 812.586 41.1862 814.839 37.9121C819.161 31.248 821.219 25.3289 821.219 20.1172C821.219 17.5332 820.593 15.8729 819.607 14.8535C818.631 13.8435 817.054 13.209 814.588 13.209C812.339 13.209 809.373 13.8661 805.637 15.2881C801.917 16.7035 797.522 18.8424 792.443 21.7227L792.438 21.7266L792.431 21.7295C785.278 25.6925 777.608 30.7567 769.421 36.9307L769.416 36.9346C761.423 42.9133 753.426 49.3909 745.428 56.3701L745.429 56.3711C737.634 63.3479 730.442 70.4211 723.853 77.5898C717.28 84.7404 710.9 92.7935 704.712 101.752C698.733 110.698 693.861 119.329 690.089 127.646L690.087 127.65C685.9 136.797 683.899 143.968 683.899 149.248C683.899 151.799 684.353 153.617 685.107 154.845C685.829 156.019 686.895 156.768 688.431 157.09C689.371 157.278 690.23 157.468 691.008 157.658H692.638C698.888 157.658 705.528 155.393 712.584 150.702C719.741 145.943 727.414 139.982 735.604 132.811C744.416 124.621 752.725 116.634 760.533 108.847C768.537 100.865 775.835 92.9869 782.43 85.2139L795.679 69.5977L795.685 69.5908L801.104 63.2842C802.675 61.457 804.959 60.6602 807.663 60.6602C810.354 60.6602 812.763 61.4426 814.831 63.0215C815.944 63.699 816.854 64.5177 817.454 65.5156C818.082 66.5588 818.322 67.7167 818.187 68.9326L818.18 68.998L818.167 69.0615C817.35 73.1345 816.029 78.0937 814.214 83.9277C812.883 88.5677 811.145 93.7362 809.009 99.4336C811.576 98.0362 813.903 96.7816 815.991 95.6709C819.211 93.8654 821.952 92.447 824.207 91.4248L824.253 91.4043L824.301 91.3857C825.148 91.0687 825.918 90.8369 826.591 90.7148C827.15 90.6134 827.779 90.5611 828.371 90.6992C828.857 90.7361 829.419 90.8986 829.875 91.3535C830.407 91.884 830.542 92.5593 830.542 93.0918C830.542 93.7701 830.273 94.4135 829.976 94.9473C829.662 95.5103 829.222 96.1161 828.688 96.7559L828.644 96.8076L828.596 96.8564C827.436 98.013 825.88 98.9938 823.999 99.835C821.856 101.003 819.006 102.766 815.438 105.138C812.099 107.487 808 110.311 803.141 113.608C797.123 127.362 789.727 141.696 780.954 156.609L780.955 156.61C772.29 171.482 762.618 185.85 751.94 199.714C741.461 213.781 730.371 226.45 718.67 237.718L718.663 237.724L718.656 237.73C715.185 240.989 711.117 244.233 706.459 247.466C701.989 250.907 697.505 253.753 693.006 255.997C688.681 258.253 684.731 259.458 681.195 259.458C678.802 259.458 676.748 258.767 675.325 257.146C673.936 255.562 673.372 253.34 673.372 250.751C673.372 246.461 674.658 241.54 677.115 236.026L677.12 236.015C679.143 231.576 681.367 227.139 683.793 222.704L683.801 222.69L683.808 222.678C686.243 218.427 688.981 214.18 692.02 209.938L692.026 209.929L692.032 209.921C702.09 196.279 711.953 183.933 721.62 172.886C731.294 161.831 741.573 151.378 752.456 141.529C763.25 131.563 775.226 121.799 788.382 112.239C791.114 105.996 793.459 100.241 795.416 94.9717L795.434 94.9268C796.796 91.5919 797.922 88.421 798.814 85.4141C797.717 86.5084 796.403 87.8205 794.871 89.3486L794.858 89.3613L794.846 89.373C790.428 93.5785 784.204 99.4858 776.174 107.094L776.166 107.102L757.497 124.519C749.064 132.529 741.928 139.143 736.094 144.36L736.072 144.38C730.224 149.408 724.173 154.234 717.922 158.859L717.923 158.86C703.623 169.506 691.644 175.073 682.099 175.073C680.976 175.073 680.033 175.048 679.281 174.994C678.607 174.946 677.977 174.867 677.493 174.721C673.704 173.845 670.737 171.991 668.743 169.093C666.759 166.21 665.844 162.451 665.844 157.957C665.844 151.073 667.928 142.658 671.978 132.764C676.031 122.858 681.495 112.47 688.357 101.6L688.361 101.594C695.416 90.5373 702.679 80.4772 710.149 71.416L710.151 71.4131C717.81 62.1676 725.871 53.3239 734.336 44.8818L734.349 44.8691C743.019 36.4235 751.696 28.876 760.38 22.2295C769.064 15.3832 777.085 10.212 784.44 6.74805C791.873 3.24771 799.82 1.50003 808.265 1.5ZM778.71 132.087C771.35 138.137 764.77 143.73 758.974 148.869C751.778 155.248 745.186 161.621 739.198 167.991L739.199 167.992C733.405 174.169 727.608 180.848 721.808 188.029C716.206 195.213 710.1 203.399 703.49 212.588L703.481 212.601L703.472 212.613C699.362 218.079 696.437 223.918 694.684 230.137L694.674 230.172L694.662 230.205C694.491 230.717 694.316 231.321 694.138 232.02V234.535C694.138 236.004 694.505 236.831 694.977 237.302C695.449 237.773 696.28 238.14 697.756 238.14C700.814 238.14 703.483 237.164 705.822 235.19L705.843 235.173L705.864 235.156C708.658 232.967 710.712 231.208 712.054 229.869L712.072 229.851C723.611 218.739 735.487 203.919 747.692 185.361C758.678 168.658 769.016 150.899 778.71 132.087Z" fill="#27D550" stroke="#27D550" stroke-width="3"/>
<path d="M0 187.203V61.3519H67.2407C84.6202 61.3519 97.4451 64.4682 105.715 70.7009C113.986 76.8137 118.121 84.6644 118.121 94.2531C118.121 100.606 116.323 106.299 112.727 111.333C109.251 116.247 104.157 120.143 97.4451 123.019C90.733 125.896 82.4628 127.334 72.6344 127.334L76.2301 117.626C86.0585 117.626 94.5086 119.004 101.58 121.761C108.772 124.517 114.285 128.533 118.121 133.806C122.076 138.96 124.054 145.193 124.054 152.504C124.054 163.412 119.499 171.922 110.39 178.034C101.4 184.147 88.216 187.203 70.8365 187.203H0ZM41.7108 157.538H67.2407C71.9152 157.538 75.3911 156.699 77.6684 155.021C80.0656 153.343 81.2642 150.886 81.2642 147.65C81.2642 144.414 80.0656 141.957 77.6684 140.279C75.3911 138.601 71.9152 137.762 67.2407 137.762H38.8342V109.715H61.4875C66.2818 109.715 69.7577 108.936 71.9152 107.378C74.1925 105.7 75.3312 103.362 75.3312 100.366C75.3312 97.2496 74.1925 94.9123 71.9152 93.3541C69.7577 91.796 66.2818 91.0169 61.4875 91.0169H41.7108V157.538Z" fill="white"/>
<path d="M190.115 187.203V169.764L187.238 165.09V132.009C187.238 127.214 185.74 123.559 182.743 121.041C179.867 118.524 175.132 117.266 168.54 117.266C164.105 117.266 159.611 117.985 155.056 119.423C150.501 120.742 146.606 122.6 143.37 124.997L130.425 98.2084C136.178 94.6127 143.07 91.8559 151.101 89.9382C159.131 88.0204 166.982 87.0616 174.653 87.0616C191.553 87.0616 204.617 90.8371 213.847 98.3882C223.196 105.939 227.87 117.925 227.87 134.346V187.203H190.115ZM162.247 189.001C154.217 189.001 147.505 187.623 142.111 184.866C136.718 182.109 132.642 178.454 129.886 173.899C127.129 169.225 125.75 164.071 125.75 158.437C125.75 152.085 127.369 146.691 130.605 142.256C133.841 137.822 138.755 134.466 145.347 132.188C152.059 129.911 160.509 128.772 170.697 128.772H191.193V148.369H177.17C172.855 148.369 169.679 149.088 167.641 150.527C165.723 151.845 164.764 153.883 164.764 156.64C164.764 158.917 165.603 160.835 167.281 162.393C169.079 163.831 171.477 164.55 174.473 164.55C177.23 164.55 179.747 163.831 182.024 162.393C184.421 160.835 186.159 158.437 187.238 155.201L192.452 167.247C190.894 174.558 187.598 180.012 182.563 183.608C177.529 187.203 170.757 189.001 162.247 189.001Z" fill="white"/>
<path d="M292.852 189.001C281.585 189.001 271.577 186.844 262.828 182.529C254.078 178.214 247.186 172.221 242.152 164.55C237.238 156.759 234.781 147.89 234.781 137.942C234.781 127.993 237.238 119.184 242.152 111.513C247.186 103.842 254.078 97.8488 262.828 93.5339C271.577 89.219 281.585 87.0616 292.852 87.0616C304.838 87.0616 315.086 89.6385 323.596 94.7925C332.106 99.9464 337.979 107.078 341.215 116.187L309.752 131.649C307.715 127.094 305.198 123.798 302.201 121.761C299.325 119.723 296.148 118.704 292.672 118.704C289.676 118.704 286.859 119.423 284.222 120.862C281.705 122.3 279.668 124.457 278.11 127.334C276.671 130.091 275.952 133.627 275.952 137.942C275.952 142.256 276.671 145.852 278.11 148.729C279.668 151.605 281.705 153.763 284.222 155.201C286.859 156.64 289.676 157.359 292.672 157.359C296.148 157.359 299.325 156.34 302.201 154.302C305.198 152.265 307.715 148.969 309.752 144.414L341.215 159.876C337.979 168.985 332.106 176.117 323.596 181.27C315.086 186.424 304.838 189.001 292.852 189.001Z" fill="white"/>
<path d="M377.395 171.023L378.294 123.199L412.274 88.8594H460.277L415.33 135.964L395.014 152.325L377.395 171.023ZM343.415 187.203V53.8008H384.047V187.203H343.415ZM414.431 187.203L387.463 153.044L412.453 122.3L463.513 187.203H414.431Z" fill="white"/>
<path d="M511.404 109.331C504.942 109.331 499.909 107.787 496.307 104.699C492.704 101.554 490.902 96.75 490.902 90.2878V51H510.289V90.1162C510.289 91.5459 510.661 92.6611 511.404 93.4617C512.205 94.2623 513.177 94.6626 514.321 94.6626C515.979 94.6626 517.437 94.2337 518.695 93.3759L523.328 106.844C521.841 107.701 520.039 108.33 517.923 108.731C515.865 109.131 513.692 109.331 511.404 109.331ZM484.469 78.2784V64.1245H519.896V78.2784H484.469Z" fill="white"/>
<path d="M548.317 109.331C542.998 109.331 538.28 108.302 534.163 106.243C530.103 104.127 526.9 101.239 524.555 97.5792C522.211 93.9192 521.038 89.7159 521.038 84.9694C521.038 80.2228 522.211 76.0195 524.555 72.3595C526.9 68.6995 530.103 65.8401 534.163 63.7814C538.28 61.7226 542.998 60.6933 548.317 60.6933C553.635 60.6933 558.353 61.7226 562.471 63.7814C566.588 65.8401 569.791 68.6995 572.078 72.3595C574.423 76.0195 575.595 80.2228 575.595 84.9694C575.595 89.7159 574.423 93.9192 572.078 97.5792C569.791 101.239 566.588 104.127 562.471 106.243C558.353 108.302 553.635 109.331 548.317 109.331ZM548.317 94.2337C549.746 94.2337 551.033 93.8906 552.177 93.2044C553.321 92.5181 554.236 91.4887 554.922 90.1162C555.608 88.6865 555.951 86.9709 555.951 84.9694C555.951 82.9106 555.608 81.2236 554.922 79.9083C554.236 78.5358 553.321 77.5064 552.177 76.8201C551.033 76.1339 549.746 75.7908 548.317 75.7908C546.887 75.7908 545.6 76.1339 544.457 76.8201C543.313 77.5064 542.398 78.5358 541.712 79.9083C541.025 81.2236 540.682 82.9106 540.682 84.9694C540.682 86.9709 541.025 88.6865 541.712 90.1162C542.398 91.4887 543.313 92.5181 544.457 93.2044C545.6 93.8906 546.887 94.2337 548.317 94.2337Z" fill="white"/>
<path d="M511.404 188.062C504.942 188.062 499.909 186.518 496.307 183.43C492.704 180.284 490.902 175.481 490.902 169.018V129.731H510.289V168.847C510.289 170.277 510.661 171.392 511.404 172.192C512.205 172.993 513.177 173.393 514.321 173.393C515.979 173.393 517.437 172.964 518.695 172.107L523.328 185.574C521.841 186.432 520.039 187.061 517.923 187.461C515.865 187.862 513.692 188.062 511.404 188.062ZM484.469 157.009V142.855H519.896V157.009H484.469Z" fill="white"/>
<path d="M557.379 139.424C560.982 139.424 564.242 140.167 567.158 141.654C570.075 143.084 572.363 145.343 574.021 148.431C575.737 151.519 576.594 155.522 576.594 160.44V187.204H557.208V163.786C557.208 160.869 556.693 158.811 555.664 157.61C554.634 156.351 553.233 155.722 551.461 155.722C550.145 155.722 548.916 156.037 547.772 156.666C546.685 157.238 545.799 158.21 545.113 159.583C544.484 160.955 544.169 162.814 544.169 165.158V187.204H524.783V123.554H544.169V154.007L539.537 150.061C541.367 146.515 543.826 143.856 546.914 142.083C550.059 140.31 553.548 139.424 557.379 139.424Z" fill="white"/>
<path d="M608.326 188.062C602.607 188.062 597.603 187.004 593.314 184.888C589.083 182.772 585.794 179.884 583.45 176.224C581.105 172.507 579.933 168.332 579.933 163.7C579.933 158.953 581.076 154.75 583.364 151.09C585.708 147.43 588.882 144.571 592.885 142.512C596.946 140.453 601.492 139.424 606.525 139.424C611.157 139.424 615.417 140.339 619.306 142.169C623.252 143.999 626.397 146.715 628.742 150.318C631.144 153.921 632.345 158.382 632.345 163.7C632.345 164.386 632.316 165.158 632.259 166.016C632.202 166.817 632.145 167.56 632.087 168.246H595.974V158.896H621.794L614.502 161.384C614.502 159.554 614.159 158.01 613.473 156.752C612.844 155.436 611.957 154.436 610.814 153.749C609.67 153.006 608.297 152.634 606.696 152.634C605.095 152.634 603.694 153.006 602.493 153.749C601.349 154.436 600.463 155.436 599.834 156.752C599.205 158.01 598.89 159.554 598.89 161.384V164.301C598.89 166.302 599.29 168.018 600.091 169.447C600.892 170.877 602.035 171.964 603.522 172.707C605.009 173.393 606.811 173.736 608.927 173.736C611.1 173.736 612.872 173.451 614.245 172.879C615.675 172.307 617.162 171.449 618.706 170.305L628.828 180.513C626.54 182.972 623.71 184.859 620.335 186.175C617.019 187.433 613.015 188.062 608.326 188.062Z" fill="white"/>
</svg>
